<svg width="16" height="16" viewBox="0 0 16 16" fill="none" xmlns="http://www.w3.org/2000/svg">
<path d="M15 2C14.7348 2 14.4805 2.10536 14.2929 2.29289C14.1054 2.48043 14 2.73478 14 3V13C14 13.2652 14.1054 13.5196 14.2929 13.7071C14.4805 13.8946 14.7348 14 15 14C15.2652 14 15.5196 13.8946 15.7071 13.7071C15.8947 13.5196 16 13.2652 16 13V3C16 2.73478 15.8947 2.48043 15.7071 2.29289C15.5196 2.10536 15.2652 2 15 2ZM4.59303 2.993L0.293031 7.293C0.10556 7.48053 0.000244141 7.73484 0.000244141 8C0.000244141 8.26516 0.10556 8.51947 0.293031 8.707L4.59303 13.007C4.68601 13.0999 4.79637 13.1736 4.91783 13.2239C5.03928 13.2741 5.16944 13.3 5.30088 13.2999C5.43233 13.2999 5.56247 13.2739 5.68389 13.2236C5.80531 13.1732 5.91562 13.0995 6.00853 13.0065C6.10144 12.9135 6.17513 12.8032 6.22539 12.6817C6.27564 12.5603 6.30149 12.4301 6.30144 12.2986C6.30139 12.1672 6.27546 12.0371 6.22512 11.9156C6.17477 11.7942 6.10101 11.6839 6.00803 11.591L3.41703 9H10C10.2652 9 10.5196 8.89464 10.7071 8.70711C10.8947 8.51957 11 8.26522 11 8C11 7.73478 10.8947 7.48043 10.7071 7.29289C10.5196 7.10536 10.2652 7 10 7H3.41703L6.00803 4.409C6.10101 4.31609 6.17477 4.20578 6.22512 4.08436C6.27546 3.96294 6.30139 3.83279 6.30144 3.70135C6.30149 3.56991 6.27564 3.43975 6.22539 3.3183C6.17513 3.19684 6.10144 3.08648 6.00853 2.9935C5.91562 2.90052 5.80531 2.82676 5.68389 2.77642C5.56247 2.72607 5.43233 2.70014 5.30088 2.70009C5.16944 2.70004 5.03928 2.72589 4.91783 2.77614C4.79637 2.8264 4.68601 2.90009 4.59303 2.993Z" fill="#FDFDFD"/>
</svg>
